<svg xmlns="http://www.w3.org/2000/svg" width="1024" height="1024" viewBox="0 0 1024 1024" role="img" aria-label="Raydar Signal R"><path fill="#F0BC18" d="M0 0h1024v1024H0Z"/><g transform="translate(242 211) scale(2.57)"><g fill="#587E98"><path d="M0 78Q0 64 24 64H48V234H0Z"/><path d="M103 195Q125 192 139 177L173 211Q186 223 189 234H140Z"/></g><g fill="#587E98"><path d="M84 0A126 126 0 0 1 193.12 189L155.01 167A82 82 0 0 0 84 44Z"/><path d="M84 54A72 72 0 0 1 146.35 162L115.18 144A36 36 0 0 0 84 90H80Q64 90 64 72Q64 54 80 54Z"/></g><circle cx="84" cy="126" r="20" fill="#FFFCF5"/></g></svg>
